<svg width="1027" height="1027" xmlns="http://www.w3.org/2000/svg" xmlns:xlink="http://www.w3.org/1999/xlink" xml:space="preserve" overflow="hidden"><defs><clipPath id="clip0"><rect x="1356" y="132" width="1027" height="1027"/></clipPath></defs><g clip-path="url(#clip0)" transform="translate(-1356 -132)"><path d="M2261.29 610.459 2372.98 544.273 2368.85 524.968 2367.47 518.074 2366.09 512.558 2363.33 505.664 2361.95 500.148 2357.82 491.875 2356.44 483.601 2353.68 476.707 2350.92 468.434 2344.03 450.508 2213.03 456.024 2207.52 447.75 2203.38 439.477 2197.87 431.204 2192.35 421.551 2254.4 307.103 2241.99 294.693 2237.85 287.799 2232.34 283.662 2226.82 278.147 2221.31 272.631 2215.79 267.116 2210.28 262.979 2204.76 257.463 2199.24 251.948 2184.08 240.917 2073.77 311.24 2065.49 305.725 2057.22 301.588 2047.57 296.072 2037.91 291.936 2035.16 160.941 2018.61 155.426 2011.72 154.047 2003.44 149.91 1996.55 148.531 1989.65 147.152 1982.76 144.394 1973.11 143.016 1966.21 141.637 1959.32 140.258 1941.39 137.5 1882.1 251.948 1876.58 251.948 1871.07 251.948 1865.55 251.948 1860.04 251.948 1854.52 251.948 1849.01 251.948 1843.49 253.327 1837.97 253.327 1771.79 141.637 1752.48 145.773 1745.59 147.152 1737.32 148.531 1730.42 149.91 1723.53 154.047 1716.63 155.426 1709.74 158.183 1704.22 159.562 1697.33 162.32 1679.4 167.836 1684.92 296.072 1675.27 301.588 1664.23 307.103 1653.2 313.998 1643.55 319.514 1531.86 258.842 1519.45 269.873 1508.42 279.526 1497.39 289.178 1487.74 301.588 1478.08 311.24 1465.67 326.408 1533.24 431.204 1526.35 442.235 1519.45 453.266 1511.18 467.055 1505.66 478.086 1382.94 479.465 1376.05 496.011 1371.91 511.179 1369.15 523.589 1365.02 538.757 1362.26 552.546 1359.5 571.85 1467.05 625.627 1465.67 640.795 1465.67 655.963 1465.67 669.752 1467.05 686.298 1363.64 748.348 1367.77 764.895 1370.53 780.063 1374.67 793.852 1380.18 806.262 1384.32 820.051 1389.84 836.597 1508.42 831.082 1515.31 846.25 1524.97 858.66 1533.24 871.07 1541.51 884.859 1482.22 989.654 1496.01 1002.06 1505.66 1011.72 1515.31 1021.37 1526.35 1031.02 1536 1039.29 1549.79 1053.08 1650.45 988.275 1657.34 992.412 1664.23 996.549 1671.13 1000.69 1678.02 1003.44 1683.54 1007.58 1690.43 1010.34 1698.71 1013.1 1705.6 1017.23 1706.98 1134.44 1724.91 1139.95 1733.18 1141.33 1738.69 1144.09 1745.59 1145.47 1752.48 1146.85 1758 1148.23 1766.27 1149.61 1773.17 1150.98 1780.06 1152.36 1797.99 1156.5 1853.14 1048.95 1860.04 1048.95 1868.31 1048.95 1876.58 1048.95 1883.48 1048.95 1890.37 1048.95 1898.65 1048.95 1906.92 1047.57 1913.81 1047.57 1975.86 1149.61 1992.41 1144.09 1997.93 1142.71 2004.82 1141.33 2011.72 1139.95 2015.85 1138.57 2022.75 1135.82 2031.02 1134.44 2037.91 1131.68 2047.57 1128.92 2064.11 1122.03 2058.6 1000.69 2064.11 996.549 2071.01 993.791 2076.52 989.654 2083.42 985.517 2088.93 982.76 2094.45 977.244 2099.96 974.486 2105.48 970.35 2211.65 1031.02 2226.82 1017.23 2236.47 1006.2 2246.13 996.549 2257.16 985.517 2265.43 974.486 2276.46 960.697 2208.9 854.523 2214.41 842.113 2221.31 832.461 2225.44 821.43 2230.96 810.398 2356.44 807.641 2363.33 789.715 2367.47 775.926 2370.23 760.758 2372.98 746.969 2375.74 731.802 2378.5 713.876 2264.05 654.584 2264.05 643.553 2262.67 631.143 2262.67 621.49 2261.29 610.459Z" stroke="#FFFFFF" stroke-width="3.4375" stroke-linecap="butt" stroke-linejoin="round" stroke-miterlimit="10" stroke-opacity="1" fill="#0F0F0F" fill-rule="evenodd" fill-opacity="1"/><path d="M1550.5 647.5C1550.5 471.321 1693.32 328.5 1869.5 328.5 2045.68 328.5 2188.5 471.321 2188.5 647.5 2188.5 823.679 2045.68 966.5 1869.5 966.5 1693.32 966.5 1550.5 823.679 1550.5 647.5Z" stroke="#FFFFFF" stroke-width="3.4375" stroke-linecap="butt" stroke-linejoin="round" stroke-miterlimit="10" stroke-opacity="1" fill="#FFFFFF" fill-rule="evenodd" fill-opacity="1"/><path d="M1548 649C1548 471.717 1691.49 328 1868.5 328 2045.51 328 2189 471.717 2189 649 2189 826.283 2045.51 970 1868.5 970 1691.49 970 1548 826.283 1548 649Z" fill="#008080" fill-rule="evenodd" fill-opacity="1"/><path d="M1669.64 446.901 1670.14 297.931 1716.01 343.806C1854.62 271.613 2013.78 307.092 2089.14 426.979 2004.68 373.885 1893.24 372.519 1795.59 423.382L1841.46 469.257Z" fill="#30D5C8" fill-rule="evenodd" fill-opacity="1"/><path d="M2133.42 462.275C2243.76 572.615 2232.83 762.442 2109.01 886.266L2029.43 806.69C2153.25 682.866 2164.18 493.039 2053.84 382.699Z" fill="#27ABA1" fill-rule="evenodd" fill-opacity="1"/><path d="M2055.59 853.834 2061.87 1009.59 2009.4 957.118C1870.99 1030.05 1713.04 995.79 1639.54 876.9 1722.79 928.37 1832.9 928.613 1929.83 877.542L1877.36 825.075Z" fill="#30D5C8" fill-rule="evenodd" fill-opacity="1"/><path d="M1595.1 841.757C1486.58 733.237 1498.99 544.886 1622.81 421.062L1702.39 500.638C1578.57 624.462 1566.16 812.813 1674.68 921.332Z" fill="#27ABA1" fill-rule="evenodd" fill-opacity="1"/><text fill="#FFFFFF" fill-opacity="1" font-family="Futura,Futura_MSFontService,sans-serif" font-style="italic" font-variant="normal" font-weight="700" font-stretch="normal" font-size="403" text-anchor="start" direction="ltr" writing-mode="lr-tb" unicode-bidi="normal" text-decoration="none" transform="matrix(1 0 0 1 1664.75 780)">DI</text></g></svg>